# xmcd CD database file
#
# Track frame offsets:
#	150
#	15829
#	31949
#	49248
#	62704
#	82144
#	97635
#	109439
#	125018
#	138879
#	150681
#	162792
#	181215
#	196092
#	217703
#	232583
#
# Disc length: 3314 seconds
#
# Revision: 3
# Processed by: cddbd v1.5.2PL0 Copyright (c) Steve Scherf et al.
# Submitted via: CDex 1.51
#
DISCID=bd0cf010
DTITLE=Kenny ROGERS - I will always love you
DYEAR=2009
DGENRE=Country
TTITLE0=01 Through the years
TTITLE1=02 The wind beneath my wings
TTITLE2=03 Lady
TTITLE3=04 I will always love you
TTITLE4=05 She believes in me
TTITLE5=06 When I fall in love
TTITLE6=07 Always
TTITLE7=08 Unchained melody
TTITLE8=09 You send me
TTITLE9=10 Love is a many splendoured thing
TTITLE10=11 It had to be you
TTITLE11=12 My funny Valentine
TTITLE12=13 Misty
TTITLE13=1 Have I told you lately that I love you
TTITLE14=15 Crazy
TTITLE15=16 Evergreen
EXTD=YEAR: 2009
EXTT0=
EXTT1=
EXTT2=
EXTT3=
EXTT4=
EXTT5=
EXTT6=
EXTT7=
EXTT8=
EXTT9=
EXTT10=
EXTT11=
EXTT12=
EXTT13=
EXTT14=
EXTT15=
PLAYORDER=
